<svg width="21" height="21" viewBox="0 0 21 21" fill="none" xmlns="http://www.w3.org/2000/svg">
<path d="M10.9198 14.4617C8.73643 14.4617 6.96143 12.6867 6.96143 10.5033V5.92C6.96143 3.73667 8.73643 1.96167 10.9198 1.96167C13.1031 1.96167 14.8781 3.73667 14.8781 5.92V10.5033C14.8781 12.6867 13.1031 14.4617 10.9198 14.4617ZM10.9198 3.21167C9.42809 3.21167 8.21143 4.42834 8.21143 5.92V10.5033C8.21143 11.995 9.42809 13.2117 10.9198 13.2117C12.4114 13.2117 13.6281 11.995 13.6281 10.5033V5.92C13.6281 4.42834 12.4114 3.21167 10.9198 3.21167Z" fill="#292D32"/>
<path d="M10.9199 17.3783C7.06159 17.3783 3.91992 14.2367 3.91992 10.3783V8.96167C3.91992 8.62 4.20326 8.33667 4.54492 8.33667C4.88659 8.33667 5.16992 8.62 5.16992 8.96167V10.3783C5.16992 13.545 7.75326 16.1283 10.9199 16.1283C14.0866 16.1283 16.6699 13.545 16.6699 10.3783V8.96167C16.6699 8.62 16.9533 8.33667 17.2949 8.33667C17.6366 8.33667 17.9199 8.62 17.9199 8.96167V10.3783C17.9199 14.2367 14.7783 17.3783 10.9199 17.3783Z" fill="#292D32"/>
<path d="M12.0783 6.90335C12.0116 6.90335 11.9366 6.89502 11.8616 6.87002C11.2533 6.64502 10.5866 6.64502 9.97832 6.87002C9.65332 6.98669 9.29498 6.82002 9.17832 6.49502C9.06165 6.17002 9.22832 5.81169 9.55332 5.69502C10.4366 5.37835 11.4116 5.37835 12.295 5.69502C12.62 5.81169 12.7866 6.17002 12.67 6.49502C12.57 6.74502 12.3283 6.90335 12.0783 6.90335Z" fill="#292D32"/>
<path d="M11.5865 8.67002C11.5282 8.67002 11.4782 8.66169 11.4198 8.64502C11.0865 8.55335 10.7448 8.55335 10.4115 8.64502C10.0782 8.73669 9.73649 8.53669 9.64482 8.20335C9.55316 7.87835 9.75316 7.53669 10.0865 7.44502C10.6282 7.29502 11.2115 7.29502 11.7532 7.44502C12.0865 7.53669 12.2865 7.87835 12.1948 8.21169C12.1198 8.48669 11.8615 8.67002 11.5865 8.67002Z" fill="#292D32"/>
<path d="M10.9199 19.8782C10.5783 19.8782 10.2949 19.5948 10.2949 19.2532V16.7532C10.2949 16.4115 10.5783 16.1282 10.9199 16.1282C11.2616 16.1282 11.5449 16.4115 11.5449 16.7532V19.2532C11.5449 19.5948 11.2616 19.8782 10.9199 19.8782Z" fill="#292D32"/>
</svg>
