<svg width="24" height="18" viewBox="0 0 24 18" fill="none" xmlns="http://www.w3.org/2000/svg">
<mask id="mask0_1076_2570" style="mask-type:luminance" maskUnits="userSpaceOnUse" x="0" y="0" width="24" height="18">
<rect width="24" height="18" fill="white"/>
</mask>
<g mask="url(#mask0_1076_2570)">
<path fill-rule="evenodd" clip-rule="evenodd" d="M0 0H24V18H0V0Z" fill="#F7FCFF"/>
<path fill-rule="evenodd" clip-rule="evenodd" d="M0 11V12.5H24V11H0Z" fill="#E31D1C"/>
<path fill-rule="evenodd" clip-rule="evenodd" d="M0 13.75V15.25H24V13.75H0Z" fill="#E31D1C"/>
<path fill-rule="evenodd" clip-rule="evenodd" d="M0 5.5V7H24V5.5H0Z" fill="#E31D1C"/>
<path fill-rule="evenodd" clip-rule="evenodd" d="M0 16.5V18H24V16.5H0Z" fill="#E31D1C"/>
<path fill-rule="evenodd" clip-rule="evenodd" d="M0 8.25V9.75H24V8.25H0Z" fill="#E31D1C"/>
<path fill-rule="evenodd" clip-rule="evenodd" d="M0 0V1.5H24V0H0Z" fill="#E31D1C"/>
<path fill-rule="evenodd" clip-rule="evenodd" d="M0 2.75V4.25H24V2.75H0Z" fill="#E31D1C"/>
<rect width="15" height="9.75" fill="#2E42A5"/>
<path fill-rule="evenodd" clip-rule="evenodd" d="M1.29141 2.20403L0.747004 2.58569L0.930803 1.90649L0.447266 1.47605H1.07883L1.29065 0.921753L1.53903 1.47605H2.07742L1.6544 1.90649L1.81817 2.58569L1.29141 2.20403ZM4.29141 2.20403L3.747 2.58569L3.9308 1.90649L3.44727 1.47605H4.07883L4.29065 0.921753L4.53903 1.47605H5.07742L4.6544 1.90649L4.81817 2.58569L4.29141 2.20403ZM6.747 2.58569L7.29141 2.20403L7.81817 2.58569L7.6544 1.90649L8.07742 1.47605H7.53903L7.29065 0.921753L7.07883 1.47605H6.44727L6.9308 1.90649L6.747 2.58569ZM10.2914 2.20403L9.747 2.58569L9.9308 1.90649L9.44726 1.47605H10.0788L10.2907 0.921753L10.539 1.47605H11.0774L10.6544 1.90649L10.8182 2.58569L10.2914 2.20403ZM0.747004 5.5857L1.29141 5.20403L1.81817 5.5857L1.6544 4.90649L2.07742 4.47605H1.53903L1.29065 3.92175L1.07883 4.47605H0.447266L0.930803 4.90649L0.747004 5.5857ZM4.29141 5.20403L3.747 5.5857L3.9308 4.90649L3.44727 4.47605H4.07883L4.29065 3.92175L4.53903 4.47605H5.07742L4.6544 4.90649L4.81817 5.5857L4.29141 5.20403ZM6.747 5.5857L7.29141 5.20403L7.81817 5.5857L7.6544 4.90649L8.07742 4.47605H7.53903L7.29065 3.92175L7.07883 4.47605H6.44727L6.9308 4.90649L6.747 5.5857ZM10.2914 5.20403L9.747 5.5857L9.9308 4.90649L9.44726 4.47605H10.0788L10.2907 3.92175L10.539 4.47605H11.0774L10.6544 4.90649L10.8182 5.5857L10.2914 5.20403ZM0.747004 8.5857L1.29141 8.20403L1.81817 8.5857L1.6544 7.90649L2.07742 7.47605H1.53903L1.29065 6.92175L1.07883 7.47605H0.447266L0.930803 7.90649L0.747004 8.5857ZM4.29141 8.20403L3.747 8.5857L3.9308 7.90649L3.44727 7.47605H4.07883L4.29065 6.92175L4.53903 7.47605H5.07742L4.6544 7.90649L4.81817 8.5857L4.29141 8.20403ZM6.747 8.5857L7.29141 8.20403L7.81817 8.5857L7.6544 7.90649L8.07742 7.47605H7.53903L7.29065 6.92175L7.07883 7.47605H6.44727L6.9308 7.90649L6.747 8.5857ZM10.2914 8.20403L9.747 8.5857L9.9308 7.90649L9.44726 7.47605H10.0788L10.2907 6.92175L10.539 7.47605H11.0774L10.6544 7.90649L10.8182 8.5857L10.2914 8.20403ZM12.747 2.58569L13.2914 2.20403L13.8182 2.58569L13.6544 1.90649L14.0774 1.47605H13.539L13.2907 0.921753L13.0788 1.47605H12.4473L12.9308 1.90649L12.747 2.58569ZM13.2914 5.20403L12.747 5.5857L12.9308 4.90649L12.4473 4.47605H13.0788L13.2907 3.92175L13.539 4.47605H14.0774L13.6544 4.90649L13.8182 5.5857L13.2914 5.20403ZM12.747 8.5857L13.2914 8.20403L13.8182 8.5857L13.6544 7.90649L14.0774 7.47605H13.539L13.2907 6.92175L13.0788 7.47605H12.4473L12.9308 7.90649L12.747 8.5857ZM2.79141 3.70403L2.247 4.0857L2.4308 3.40649L1.94727 2.97605H2.57883L2.79065 2.42175L3.03903 2.97605H3.57742L3.1544 3.40649L3.31817 4.0857L2.79141 3.70403ZM5.247 4.0857L5.79141 3.70403L6.31817 4.0857L6.1544 3.40649L6.57742 2.97605H6.03903L5.79065 2.42175L5.57883 2.97605H4.94727L5.4308 3.40649L5.247 4.0857ZM8.79141 3.70403L8.247 4.0857L8.4308 3.40649L7.94727 2.97605H8.57883L8.79065 2.42175L9.03903 2.97605H9.57742L9.1544 3.40649L9.31817 4.0857L8.79141 3.70403ZM2.247 7.08569L2.79141 6.70403L3.31817 7.08569L3.1544 6.40649L3.57742 5.97605H3.03903L2.79065 5.42175L2.57883 5.97605H1.94727L2.4308 6.40649L2.247 7.08569ZM5.79141 6.70403L5.247 7.08569L5.4308 6.40649L4.94727 5.97605H5.57883L5.79065 5.42175L6.03903 5.97605H6.57742L6.1544 6.40649L6.31817 7.08569L5.79141 6.70403ZM8.247 7.08569L8.79141 6.70403L9.31817 7.08569L9.1544 6.40649L9.57742 5.97605H9.03903L8.79065 5.42175L8.57883 5.97605H7.94727L8.4308 6.40649L8.247 7.08569ZM11.7914 3.70403L11.247 4.0857L11.4308 3.40649L10.9473 2.97605H11.5788L11.7907 2.42175L12.039 2.97605H12.5774L12.1544 3.40649L12.3182 4.0857L11.7914 3.70403ZM11.247 7.08569L11.7914 6.70403L12.3182 7.08569L12.1544 6.40649L12.5774 5.97605H12.039L11.7907 5.42175L11.5788 5.97605H10.9473L11.4308 6.40649L11.247 7.08569Z" fill="#F7FCFF"/>
</g>
</svg>
